<!-- Generated by IcoMoon.io -->
<svg version="1.1" xmlns="http://www.w3.org/2000/svg" width="1035" height="1024" viewBox="0 0 1035 1024">
<title></title>
<g id="icomoon-ignore">
</g>
<path fill="none" stroke-linejoin="miter" stroke-linecap="butt" stroke-miterlimit="4" stroke-width="41.7959" stroke="#000" d="M0 20.898h125.388l142.942 701.336c0.923 27.99 23.728 50.356 51.806 50.573h682.966"></path>
<path fill="none" stroke-linejoin="miter" stroke-linecap="butt" stroke-miterlimit="4" stroke-width="41.7959" stroke="#000" d="M146.286 138.344h810.841c0.557-0.019 1.212-0.030 1.87-0.030 17.654 0 33.456 7.932 44.036 20.426l0.070 0.084c7.473 10.103 11.961 22.808 11.961 36.561 0 4.819-0.551 9.509-1.594 14.011l0.081-0.417-64.366 334.367c-8.173 36.434-39.306 63.583-77.112 65.611l-0.21 0.009h-626.939"></path>
<path fill="none" stroke-linejoin="miter" stroke-linecap="butt" stroke-miterlimit="4" stroke-width="41.7959" stroke="#000" d="M348.996 933.721c0.237-37.907 31.022-68.545 68.962-68.545 38.087 0 68.963 30.876 68.963 68.963s-30.875 68.963-68.962 68.963v0c-38.044-0.469-68.731-31.303-68.963-69.359v-0.022z"></path>
<path fill="none" stroke-linejoin="miter" stroke-linecap="butt" stroke-miterlimit="4" stroke-width="41.7959" stroke="#000" d="M763.611 933.721c0.237-37.907 31.022-68.545 68.962-68.545 38.087 0 68.963 30.876 68.963 68.963s-30.875 68.963-68.962 68.963v0c-38.138-0.237-68.963-31.209-68.963-69.38 0 0 0-0.001 0-0.001v0z"></path>
</svg>
